<svg width="161" height="37" viewBox="0 0 161 37" fill="none" xmlns="http://www.w3.org/2000/svg">
<g style="mix-blend-mode:darken">
<path d="M16.0475 21.08C16.0475 23.16 15.2742 24.7333 13.7275 25.8C12.1808 26.8667 10.1008 27.4 7.4875 27.4C5.99417 27.4 4.70083 27.28 3.6075 27.04C2.54083 26.8 1.59417 26.4667 0.7675 26.04V22.84C1.62083 23.2667 2.6475 23.6667 3.8475 24.04C5.07417 24.3867 6.31417 24.56 7.5675 24.56C9.35417 24.56 10.6475 24.28 11.4475 23.72C12.2475 23.1333 12.6475 22.36 12.6475 21.4C12.6475 20.8667 12.5008 20.3867 12.2075 19.96C11.9142 19.5333 11.3808 19.1067 10.6075 18.68C9.86083 18.2533 8.78083 17.7733 7.3675 17.24C5.98083 16.7067 4.79417 16.1733 3.8075 15.64C2.82083 15.1067 2.06083 14.4667 1.5275 13.72C0.994167 12.9733 0.7275 12.0133 0.7275 10.84C0.7275 9.02667 1.46083 7.62667 2.9275 6.64C4.42083 5.65333 6.3675 5.16 8.7675 5.16C10.0742 5.16 11.2875 5.29333 12.4075 5.56C13.5542 5.8 14.6208 6.14667 15.6075 6.6L14.4075 9.4C13.5008 9.02667 12.5542 8.70667 11.5675 8.44C10.5808 8.17333 9.5675 8.04 8.5275 8.04C7.0875 8.04 5.98083 8.28 5.2075 8.76C4.46083 9.21333 4.0875 9.84 4.0875 10.64C4.0875 11.2267 4.26083 11.7333 4.6075 12.16C4.95417 12.56 5.5275 12.96 6.3275 13.36C7.15417 13.7333 8.2475 14.1867 9.6075 14.72C10.9675 15.2267 12.1275 15.7467 13.0875 16.28C14.0475 16.8133 14.7808 17.4667 15.2875 18.24C15.7942 18.9867 16.0475 19.9333 16.0475 21.08ZM26.6281 5.16C29.2681 5.16 31.3881 6.08 32.9881 7.92C34.6148 9.76 35.4281 12.5333 35.4281 16.24C35.4281 19.8933 34.6148 22.6667 32.9881 24.56C31.3881 26.4533 29.2548 27.4 26.5881 27.4C24.9348 27.4 23.5615 27.0933 22.4681 26.48C21.4015 25.84 20.5615 25.1067 19.9481 24.28H19.7081C19.7615 24.7333 19.8148 25.3067 19.8681 26C19.9215 26.6933 19.9481 27.2933 19.9481 27.8V36.6H16.4281V5.56H19.3081L19.7881 8.48H19.9481C20.5881 7.54667 21.4281 6.76 22.4681 6.12C23.5081 5.48 24.8948 5.16 26.6281 5.16ZM25.9881 8.12C23.8015 8.12 22.2548 8.73333 21.3481 9.96C20.4681 11.1867 20.0015 13.0533 19.9481 15.56V16.24C19.9481 18.88 20.3748 20.92 21.2281 22.36C22.1081 23.7733 23.7215 24.48 26.0681 24.48C27.3748 24.48 28.4415 24.12 29.2681 23.4C30.1215 22.68 30.7481 21.7067 31.1481 20.48C31.5748 19.2267 31.7881 17.8 31.7881 16.2C31.7881 13.7467 31.3081 11.7867 30.3481 10.32C29.4148 8.85333 27.9615 8.12 25.9881 8.12ZM54.8775 16.24C54.8775 19.7867 53.9708 22.5333 52.1575 24.48C50.3708 26.4267 47.9442 27.4 44.8775 27.4C42.9842 27.4 41.2908 26.9733 39.7975 26.12C38.3308 25.24 37.1708 23.9733 36.3175 22.32C35.4642 20.64 35.0375 18.6133 35.0375 16.24C35.0375 12.6933 35.9308 9.96 37.7175 8.04C39.5042 6.12 41.9308 5.16 44.9975 5.16C46.9442 5.16 48.6508 5.6 50.1175 6.48C51.6108 7.33333 52.7708 8.58667 53.5975 10.24C54.4508 11.8667 54.8775 13.8667 54.8775 16.24ZM38.6775 16.24C38.6775 18.7733 39.1708 20.7867 40.1575 22.28C41.1708 23.7467 42.7708 24.48 44.9575 24.48C47.1175 24.48 48.7042 23.7467 49.7175 22.28C50.7308 20.7867 51.2375 18.7733 51.2375 16.24C51.2375 13.7067 50.7308 11.72 49.7175 10.28C48.7042 8.84 47.1042 8.12 44.9175 8.12C42.7308 8.12 41.1442 8.84 40.1575 10.28C39.1708 11.72 38.6775 13.7067 38.6775 16.24ZM65.6562 5.16C66.0562 5.16 66.4829 5.18667 66.9362 5.24C67.4162 5.26667 67.8296 5.32 68.1762 5.4L67.7362 8.64C67.3896 8.56 67.0029 8.49333 66.5762 8.44C66.1762 8.38667 65.7896 8.36 65.4162 8.36C64.3229 8.36 63.2962 8.66667 62.3362 9.28C61.3762 9.86667 60.6029 10.7067 60.0162 11.8C59.4562 12.8667 59.1762 14.12 59.1762 15.56V27H55.6562V5.56H58.5362L58.9362 9.48H59.0962C59.7896 8.30667 60.6829 7.29333 61.7762 6.44C62.8696 5.58667 64.1629 5.16 65.6562 5.16ZM74.5397 24.52C75.073 24.52 75.6197 24.48 76.1797 24.4C76.7397 24.2933 77.193 24.1867 77.5397 24.08V26.76C77.1664 26.9467 76.633 27.0933 75.9397 27.2C75.2464 27.3333 74.5797 27.4 73.9397 27.4C72.8197 27.4 71.7797 27.2133 70.8197 26.84C69.8864 26.44 69.1264 25.76 68.5397 24.8C67.953 23.84 67.6597 22.4933 67.6597 20.76V8.28H64.6197V6.6L67.6997 5.2L69.0997 0.639998H71.1797V5.56H77.3797V8.28H71.1797V20.68C71.1797 21.9867 71.4864 22.96 72.0997 23.6C72.7397 24.2133 73.553 24.52 74.5397 24.52ZM90.9928 21.08C90.9928 23.16 90.2195 24.7333 88.6728 25.8C87.1261 26.8667 85.0461 27.4 82.4328 27.4C80.9395 27.4 79.6461 27.28 78.5528 27.04C77.4861 26.8 76.5395 26.4667 75.7128 26.04V22.84C76.5661 23.2667 77.5928 23.6667 78.7928 24.04C80.0195 24.3867 81.2595 24.56 82.5128 24.56C84.2995 24.56 85.5928 24.28 86.3928 23.72C87.1928 23.1333 87.5928 22.36 87.5928 21.4C87.5928 20.8667 87.4461 20.3867 87.1528 19.96C86.8595 19.5333 86.3261 19.1067 85.5528 18.68C84.8061 18.2533 83.7261 17.7733 82.3128 17.24C80.9261 16.7067 79.7395 16.1733 78.7528 15.64C77.7661 15.1067 77.0061 14.4667 76.4728 13.72C75.9395 12.9733 75.6728 12.0133 75.6728 10.84C75.6728 9.02667 76.4061 7.62667 77.8728 6.64C79.3661 5.65333 81.3128 5.16 83.7128 5.16C85.0195 5.16 86.2328 5.29333 87.3528 5.56C88.4995 5.8 89.5661 6.14667 90.5528 6.6L89.3528 9.4C88.4461 9.02667 87.4995 8.70667 86.5128 8.44C85.5261 8.17333 84.5128 8.04 83.4728 8.04C82.0328 8.04 80.9261 8.28 80.1528 8.76C79.4061 9.21333 79.0328 9.84 79.0328 10.64C79.0328 11.2267 79.2061 11.7333 79.5528 12.16C79.8995 12.56 80.4728 12.96 81.2728 13.36C82.0995 13.7333 83.1928 14.1867 84.5528 14.72C85.9128 15.2267 87.0728 15.7467 88.0328 16.28C88.9928 16.8133 89.7261 17.4667 90.2328 18.24C90.7395 18.9867 90.9928 19.9333 90.9928 21.08ZM106.891 5.16C109.531 5.16 111.651 6.08 113.251 7.92C114.877 9.76 115.691 12.5333 115.691 16.24C115.691 19.8933 114.877 22.6667 113.251 24.56C111.651 26.4533 109.517 27.4 106.851 27.4C105.197 27.4 103.824 27.0933 102.731 26.48C101.664 25.84 100.824 25.1067 100.211 24.28H99.9706C100.024 24.7333 100.077 25.3067 100.131 26C100.184 26.6933 100.211 27.2933 100.211 27.8V36.6H96.6906V5.56H99.5706L100.051 8.48H100.211C100.851 7.54667 101.691 6.76 102.731 6.12C103.771 5.48 105.157 5.16 106.891 5.16ZM106.251 8.12C104.064 8.12 102.517 8.73333 101.611 9.96C100.731 11.1867 100.264 13.0533 100.211 15.56V16.24C100.211 18.88 100.637 20.92 101.491 22.36C102.371 23.7733 103.984 24.48 106.331 24.48C107.637 24.48 108.704 24.12 109.531 23.4C110.384 22.68 111.011 21.7067 111.411 20.48C111.837 19.2267 112.051 17.8 112.051 16.2C112.051 13.7467 111.571 11.7867 110.611 10.32C109.677 8.85333 108.224 8.12 106.251 8.12ZM135.14 16.24C135.14 19.7867 134.233 22.5333 132.42 24.48C130.633 26.4267 128.207 27.4 125.14 27.4C123.247 27.4 121.553 26.9733 120.06 26.12C118.593 25.24 117.433 23.9733 116.58 22.32C115.727 20.64 115.3 18.6133 115.3 16.24C115.3 12.6933 116.193 9.96 117.98 8.04C119.767 6.12 122.193 5.16 125.26 5.16C127.207 5.16 128.913 5.6 130.38 6.48C131.873 7.33333 133.033 8.58667 133.86 10.24C134.713 11.8667 135.14 13.8667 135.14 16.24ZM118.94 16.24C118.94 18.7733 119.433 20.7867 120.42 22.28C121.433 23.7467 123.033 24.48 125.22 24.48C127.38 24.48 128.967 23.7467 129.98 22.28C130.993 20.7867 131.5 18.7733 131.5 16.24C131.5 13.7067 130.993 11.72 129.98 10.28C128.967 8.84 127.367 8.12 125.18 8.12C122.993 8.12 121.407 8.84 120.42 10.28C119.433 11.72 118.94 13.7067 118.94 16.24ZM149.879 21.08C149.879 23.16 149.105 24.7333 147.559 25.8C146.012 26.8667 143.932 27.4 141.319 27.4C139.825 27.4 138.532 27.28 137.439 27.04C136.372 26.8 135.425 26.4667 134.599 26.04V22.84C135.452 23.2667 136.479 23.6667 137.679 24.04C138.905 24.3867 140.145 24.56 141.399 24.56C143.185 24.56 144.479 24.28 145.279 23.72C146.079 23.1333 146.479 22.36 146.479 21.4C146.479 20.8667 146.332 20.3867 146.039 19.96C145.745 19.5333 145.212 19.1067 144.439 18.68C143.692 18.2533 142.612 17.7733 141.199 17.24C139.812 16.7067 138.625 16.1733 137.639 15.64C136.652 15.1067 135.892 14.4667 135.359 13.72C134.825 12.9733 134.559 12.0133 134.559 10.84C134.559 9.02667 135.292 7.62667 136.759 6.64C138.252 5.65333 140.199 5.16 142.599 5.16C143.905 5.16 145.119 5.29333 146.239 5.56C147.385 5.8 148.452 6.14667 149.439 6.6L148.239 9.4C147.332 9.02667 146.385 8.70667 145.399 8.44C144.412 8.17333 143.399 8.04 142.359 8.04C140.919 8.04 139.812 8.28 139.039 8.76C138.292 9.21333 137.919 9.84 137.919 10.64C137.919 11.2267 138.092 11.7333 138.439 12.16C138.785 12.56 139.359 12.96 140.159 13.36C140.985 13.7333 142.079 14.1867 143.439 14.72C144.799 15.2267 145.959 15.7467 146.919 16.28C147.879 16.8133 148.612 17.4667 149.119 18.24C149.625 18.9867 149.879 19.9333 149.879 21.08ZM157.419 24.52C157.953 24.52 158.499 24.48 159.059 24.4C159.619 24.2933 160.073 24.1867 160.419 24.08V26.76C160.046 26.9467 159.513 27.0933 158.819 27.2C158.126 27.3333 157.459 27.4 156.819 27.4C155.699 27.4 154.659 27.2133 153.699 26.84C152.766 26.44 152.006 25.76 151.419 24.8C150.833 23.84 150.539 22.4933 150.539 20.76V8.28H147.499V6.6L150.579 5.2L151.979 0.639998H154.059V5.56H160.259V8.28H154.059V20.68C154.059 21.9867 154.366 22.96 154.979 23.6C155.619 24.2133 156.433 24.52 157.419 24.52Z" fill="#00245D"/>
</g>
</svg>
